PathFileType	4	(X/Y/Z)	./resultDataOpenSim/trcMotMarkerGrf/sub09/qtm-13-05.trc
DataRate	CameraRate	NumFrames	NumMarkers	Units	OrigDataRate	OrigDataStartFrame	OrigNumFrames
250.000000	250.000000	12	24	m	250.000000	253	504
Frame#	Time	L.Toe.Tip			R.Toe.Tip			L.Ankle.Lat			R.Ankle.Lat			L.Ankle.Med			R.Ankle.Med			L.Heel			R.Heel			L.Knee.Lat			R.Knee.Lat			L.Knee.Med			R.Knee.Med			L.Thigh.Upper			R.Thigh.Upper			L.ASIS			R.ASIS			V.Sacral			L.Acromium			R.Acromium			C7			L.Elbow			R.Elbow			L.Wrist.Lat			R.Wrist.Lat
		X1	Y1	Z1	X2	Y2	Z2	X3	Y3	Z3	X4	Y4	Z4	X5	Y5	Z5	X6	Y6	Z6	X7	Y7	Z7	X8	Y8	Z8	X9	Y9	Z9	X10	Y10	Z10	X11	Y11	Z11	X12	Y12	Z12	X13	Y13	Z13	X14	Y14	Z14	X15	Y15	Z15	X16	Y16	Z16	X17	Y17	Z17	X18	Y18	Z18	X19	Y19	Z19	X20	Y20	Z20	X21	Y21	Z21	X22	Y22	Z22	X23	Y23	Z23	X24	Y24	Z24

253	1.008	0.2027205	-0.01001213	-0.008512055	0.52684409	0.10701539	0.098472952	0.056475173	0.033490978	-0.045241877	0.38219733	0.12788073	0.1243337	0.081305682	0.053440709	0.049646032	0.40484056	0.16508929	0.032724892	-0.017274246	0.0056569272	0.0028140371	0.315316	0.10503011	0.072288389	0.18072156	0.43083729	-0.10696478	0.51103088	0.55716001	0.16165349	0.18500998	0.43394433	0.018946497	0.50713051	0.54479515	0.037543436	0.21163005	0.85410705	-0.16234385	0.24989385	0.8653098	0.20863057	0.30683831	0.93748983	-0.10920607	0.32065948	0.94914665	0.12999887	0.14922924	1.0001834	0.018636817	0.33207977	1.387016	-0.14905156	0.29439047	1.4086483	0.17868228	0.24834349	1.4500751	0.0074366663	0.20064067	1.0408299	-0.22643743	0.12132147	1.0970619	0.26423029	0.38812497	0.84713207	-0.23694174	0.20120119	0.84161871	0.31535034
254	1.012	0.20275648	-0.0099857679	-0.0084374096	0.54658718	0.10682037	0.097628786	0.0565458	0.033952104	-0.04472632	0.40111523	0.12401845	0.12305709	0.081696543	0.053757301	0.0501289	0.42321248	0.16198196	0.031583413	-0.017144214	0.0063695992	0.0035094649	0.33526484	0.099589502	0.070606574	0.18161181	0.43102947	-0.10663762	0.51831866	0.5576902	0.16150659	0.18672164	0.43420739	0.018984306	0.51410935	0.54487523	0.037232714	0.21625768	0.85387223	-0.16218674	0.25620306	0.86505051	0.20864806	0.31214529	0.93700387	-0.10956513	0.32676948	0.94869256	0.12962543	0.15490168	0.99978464	0.018964394	0.33794351	1.3866227	-0.14907808	0.30092318	1.4080699	0.17874939	0.25446475	1.4496332	0.0076018153	0.20678302	1.0401349	-0.22641161	0.12775375	1.0967103	0.26433546	0.39549075	0.84754697	-0.23667819	0.20648377	0.84097261	0.31537693
255	1.016	0.2027664	-0.0099684883	-0.0083440231	0.56626954	0.10669878	0.096934415	0.05659938	0.034432264	-0.044175281	0.42007188	0.1203529	0.12173079	0.082087484	0.054076629	0.050601718	0.44165438	0.15899977	0.030430741	-0.017010349	0.0070820565	0.0042303772	0.35522871	0.094392936	0.068876277	0.18246545	0.43125289	-0.10631992	0.52528582	0.55805226	0.16128315	0.18870625	0.43435816	0.018956861	0.52102163	0.54475741	0.036953153	0.2207878	0.85357121	-0.16196273	0.26250502	0.8647112	0.20866683	0.31746138	0.93647183	-0.10991764	0.33289897	0.94815938	0.12925722	0.16064944	0.99933115	0.019283645	0.34379781	1.3861944	-0.14910802	0.30746785	1.4074316	0.17882574	0.26056989	1.4491258	0.0077882505	0.21293011	1.0394024	-0.22637196	0.13421902	1.0962986	0.26447148	0.40283656	0.8479157	-0.23639325	0.21184136	0.84027211	0.31541602
256	1.02	0.20276617	-0.0099702288	-0.0082604207	0.58586855	0.10669192	0.096392959	0.056621713	0.034929295	-0.043572715	0.43902	0.11688901	0.12038108	0.08248372	0.054417908	0.051052184	0.46014838	0.15616911	0.029272836	-0.01688224	0.007792458	0.0049647517	0.37522136	0.089429433	0.067103955	0.18328533	0.43151088	-0.10602126	0.53201614	0.55821372	0.16105905	0.19068729	0.43450496	0.018910449	0.52784144	0.54444299	0.036737953	0.22531346	0.85322581	-0.16176812	0.26879101	0.8642866	0.20868653	0.32278946	0.93588988	-0.11026851	0.33905083	0.94754885	0.12889889	0.16648826	0.9987931	0.019526425	0.34964665	1.3857306	-0.14913541	0.31402902	1.4067319	0.17891493	0.26666191	1.4485723	0.008037585	0.21907828	1.0386362	-0.22630912	0.14071028	1.0958324	0.26463282	0.41016091	0.84823776	-0.23608973	0.21727847	0.83952415	0.31546714
257	1.024	0.20276523	-0.0099850688	-0.00819629	0.60533583	0.10687196	0.096009895	0.05660728	0.035434824	-0.042933101	0.45791168	0.11364677	0.11904405	0.082899174	0.054784195	0.051484652	0.47868269	0.15351277	0.028101953	-0.016764149	0.0085038122	0.0057031619	0.39524557	0.084689667	0.065293572	0.1840773	0.43179547	-0.10574773	0.53860441	0.55814539	0.16089591	0.19231552	0.43471797	0.018953513	0.53457287	0.54393951	0.036598778	0.22984383	0.85286502	-0.16170886	0.2750622	0.86377578	0.20870934	0.3281354	0.93526144	-0.1106219	0.34522865	0.94686317	0.12855115	0.17242619	0.99815012	0.019659955	0.3554939	1.3852327	-0.14915269	0.32061609	1.405972	0.1790159	0.27274651	1.4479843	0.0083718006	0.2252245	1.0378406	-0.22620821	0.14723021	1.0953049	0.26481268	0.41746482	0.84851252	-0.23576927	0.22279864	0.83873801	0.31553261
258	1.028	0.20276655	-0.010001856	-0.0081490535	0.62464373	0.10730544	0.095782706	0.056554363	0.035952226	-0.042258799	0.47671032	0.11065128	0.11773731	0.083340441	0.055162214	0.051906771	0.49724035	0.15104117	0.026919708	-0.016648522	0.0092220694	0.0064488078	0.41529466	0.080167253	0.063446356	0.18484467	0.43209703	-0.10550029	0.54510645	0.55784932	0.16082257	0.19350487	0.43498158	0.019124476	0.54125765	0.54326099	0.036508702	0.23434049	0.85251436	-0.1618314	0.28132648	0.86317973	0.20873948	0.33350896	0.93458848	-0.11097721	0.35143596	0.94610229	0.12821381	0.17843093	0.99741449	0.019738767	0.36133924	1.3847025	-0.14915722	0.32722552	1.4051565	0.1791229	0.27883876	1.447355	0.0087490075	0.23137008	1.037014	-0.22607129	0.15379256	1.0947023	0.26500896	0.4247485	0.84873907	-0.23543266	0.22839863	0.83791677	0.31561171
259	1.032	0.20277002	-0.010014682	-0.0081149002	0.64378926	0.10801415	0.09570069	0.056474311	0.036488505	-0.041555123	0.49539966	0.10790004	0.1164473	0.083796227	0.055541089	0.052322258	0.51579155	0.14875696	0.025748795	-0.016523763	0.009952018	0.0072111554	0.43536515	0.075863293	0.061567622	0.18558877	0.43241432	-0.10527758	0.55152279	0.55735226	0.1608272	0.19450706	0.43523248	0.019341038	0.54792725	0.5424214	0.036435863	0.23881336	0.85217722	-0.16204982	0.28759169	0.86249919	0.20877881	0.33891567	0.93386876	-0.11133448	0.35767433	0.94526664	0.12788427	0.18444145	0.99662838	0.019873096	0.36717788	1.3841376	-0.14915352	0.3338444	1.4042923	0.17923053	0.28498932	1.4466768	0.0090827146	0.23751878	1.0361509	-0.22591868	0.16041969	1.0940162	0.26522769	0.43200889	0.84891693	-0.23508258	0.23406833	0.83705584	0.31569723
260	1.036	0.20277291	-0.010024191	-0.0080928068	0.66276584	0.1089601	0.0957254	0.056399469	0.037036585	-0.040867636	0.51401248	0.1053321	0.11514143	0.084252252	0.055922221	0.052737418	0.53429542	0.14666656	0.024623735	-0.016385651	0.01069598	0.0079943855	0.4554592	0.07178825	0.059667475	0.18631559	0.43275415	-0.1050827	0.55783585	0.55668363	0.1608777	0.19561057	0.43543996	0.019498074	0.55456572	0.54142708	0.036381418	0.24333436	0.85182639	-0.16218593	0.29386131	0.86173151	0.20882572	0.34435566	0.93310261	-0.11169549	0.36394327	0.94435747	0.12755701	0.19042298	0.99582464	0.020126568	0.37300699	1.3835319	-0.14914463	0.34047202	1.4033816	0.17933769	0.29125972	1.4459423	0.0093133232	0.24367069	1.0352466	-0.22576732	0.16711562	1.0932657	0.265482	0.43924045	0.84904601	-0.23472394	0.2397985	0.83614816	0.31577936
261	1.04	0.2027713	-0.01003406	-0.0080837354	0.68156417	0.1100749	0.095777347	0.05635578	0.037584245	-0.040239895	0.53263147	0.1028558	0.11379578	0.084706002	0.056317097	0.053160101	0.55270548	0.14478636	0.02357466	-0.016237428	0.011454792	0.0087977398	0.47557479	0.067958995	0.057752068	0.18703383	0.43312186	-0.10492803	0.5640593	0.55586482	0.16095156	0.19686563	0.43563068	0.01957107	0.56112194	0.5402791	0.036377854	0.24793432	0.85142223	-0.16214191	0.30013474	0.86087321	0.20887786	0.34983174	0.93229538	-0.11205836	0.37024592	0.94337756	0.12722933	0.19639051	0.99500024	0.020473027	0.37882999	1.3828816	-0.1491278	0.34712015	1.40242	0.17944739	0.29763956	1.4451406	0.00945649	0.24982176	1.0342997	-0.22561818	0.17381622	1.0925164	0.26578639	0.44643937	0.84912567	-0.2343593	0.24558709	0.83519018	0.31585348
262	1.044	0.20276245	-0.010046876	-0.0080880256	0.70018419	0.11131401	0.095774283	0.056337045	0.038135216	-0.0396626	0.55133065	0.10043314	0.11241834	0.08516132	0.056741009	0.05358696	0.57098667	0.14313739	0.022605692	-0.016080436	0.012228941	0.0096269248	0.49570031	0.064395495	0.05581568	0.18775073	0.43351449	-0.1048271	0.57021121	0.55489453	0.1610198	0.19815836	0.43584151	0.019596607	0.5675585	0.53898659	0.036446847	0.25254529	0.85093118	-0.16199097	0.30641107	0.85992604	0.20893284	0.35535063	0.93145024	-0.11241635	0.37658725	0.9423324	0.12690256	0.20237483	0.9941246	0.02084836	0.38465135	1.3821877	-0.14910258	0.35379138	1.4014052	0.17956313	0.30402561	1.4442727	0.0095889265	0.25596934	1.0333118	-0.22546431	0.18040383	1.0918479	0.26614639	0.45360887	0.84915469	-0.23398686	0.25143546	0.83418323	0.31592111
263	1.048	0.20274601	-0.010062459	-0.0081047545	0.71863364	0.11267454	0.095669288	0.056320228	0.038706451	-0.039100998	0.57011571	0.098114839	0.11104966	0.085620359	0.057202793	0.054001059	0.58911352	0.14172924	0.021693176	-0.015910112	0.013019743	0.010493912	0.51580398	0.061117014	0.053857182	0.18848008	0.43392178	-0.10478099	0.57625284	0.55374837	0.16104776	0.19940939	0.43607718	0.019607506	0.57389597	0.53757189	0.036559258	0.25707962	0.85033653	-0.16187922	0.31269096	0.85889559	0.20898774	0.36091506	0.93056159	-0.11276351	0.38296845	0.94122743	0.12657735	0.2083802	0.99315958	0.02120757	0.39047043	1.381455	-0.14907509	0.36047585	1.4003414	0.17968655	0.31031826	1.4433522	0.0098074633	0.26211412	1.0322883	-0.22530162	0.18682903	1.0912587	0.26654685	0.4607562	0.84913358	-0.23360594	0.25734155	0.83312972	0.31598305
264	1.052	0.20272424	-0.010078905	-0.0081325844	0.73691965	0.11417029	0.095444132	0.05629377	0.039309035	-0.03854432	0.58890523	0.095987144	0.10973417	0.086083823	0.057699865	0.054390253	0.6070483	0.14055187	0.020809443	-0.015723202	0.013834271	0.011393241	0.53580675	0.05814002	0.051930812	0.18924878	0.43433218	-0.104779	0.58208478	0.55238488	0.16105964	0.20063346	0.43631121	0.019615466	0.58022011	0.53606258	0.036626575	0.26155469	0.84966293	-0.16187117	0.31897801	0.85778836	0.20904053	0.36651969	0.92961928	-0.11310108	0.38938879	0.94006537	0.12625007	0.21438468	0.99208468	0.021538613	0.39628463	1.3806921	-0.14905244	0.36717024	1.3992347	0.17981789	0.3165185	1.4423823	0.010180318	0.2682565	1.0312339	-0.22513019	0.19317675	1.0906323	0.26695784	0.46788525	0.84906624	-0.2332188	0.26330242	0.83203045	0.31604012
